<svg xmlns="http://www.w3.org/2000/svg" viewBox="20 15 460 130" width="100%" height="100%">
  <defs>
    <linearGradient id="cubeGradient" x1="0%" y1="0%" x2="100%" y2="100%">
      <stop offset="0%" stop-color="#3b82f6" /> <stop offset="100%" stop-color="#06b6d4" /> </linearGradient>
    <linearGradient id="academyGradient" x1="0%" y1="0%" x2="100%" y2="0%">
      <stop offset="0%" stop-color="#f3f4f6" /> <stop offset="100%" stop-color="#9ca3af" /> </linearGradient>
  </defs>

  <g transform="translate(20, 15)">
    <g transform="translate(10, 10)">
      <path d="M 55,10 L 100,32 L 55,55 L 10,32 Z" fill="url(#cubeGradient)" opacity="0.85" />
      <path d="M 10,32 L 55,55 L 55,110 L 10,88 Z" fill="url(#cubeGradient)" opacity="0.7" />
      <path d="M 55,55 L 100,32 L 100,88 L 55,110 Z" fill="url(#cubeGradient)" />
      
      <path d="M 55,25 L 78,36 M 55,40 L 32,29" stroke="#ffffff" stroke-width="2.5" stroke-linecap="round" opacity="0.6" />
      <path d="M 32,50 L 32,75 M 78,50 L 78,75" stroke="#ffffff" stroke-width="2.5" stroke-linecap="round" opacity="0.6" />
      
      <path d="M 5,85 C -10,120 40,125 70,115 C 105,105 120,70 100,55" fill="none" stroke="url(#cubeGradient)" stroke-width="5" stroke-linecap="round" />
    </g>

    <text x="145" y="68" font-family="system-ui, -apple-system, sans-serif" font-size="44" font-weight="900" fill="#ffffff" letter-spacing="2">NTP</text>
    
    <text x="242" y="68" font-family="system-ui, -apple-system, sans-serif" font-size="44" font-weight="800" fill="url(#cubeGradient)" letter-spacing="1">CUBER</text>
    
    <text x="147" y="105" font-family="system-ui, -apple-system, sans-serif" font-size="24" font-weight="600" fill="url(#academyGradient)" letter-spacing="9">ACADEMY</text>
    
    <rect x="147" y="117" width="280" height="3" fill="url(#cubeGradient)" rx="1.5" opacity="0.4" />
  </g>
</svg>
